<?xml version="1.0" encoding="UTF-8" standalone="no"?>
<!-- Created with Inkscape (http://www.inkscape.org/) -->

<svg
   xmlns:dc="http://purl.org/dc/elements/1.1/"
   xmlns:cc="http://creativecommons.org/ns#"
   xmlns:rdf="http://www.w3.org/1999/02/22-rdf-syntax-ns#"
   xmlns:svg="http://www.w3.org/2000/svg"
   xmlns="http://www.w3.org/2000/svg"
   xmlns:sodipodi="http://sodipodi.sourceforge.net/DTD/sodipodi-0.dtd"
   xmlns:inkscape="http://www.inkscape.org/namespaces/inkscape"
   width="70px"
   height="210px"
   viewBox="0 0 70 210"
   version="1.1"
   id="SVGRoot"
   inkscape:version="0.92.1 r15371"
   sodipodi:docname="reception-notify.svg">
  <sodipodi:namedview
     id="base"
     pagecolor="#ffffff"
     bordercolor="#666666"
     borderopacity="1.0"
     inkscape:pageopacity="0.0"
     inkscape:pageshadow="2"
     inkscape:zoom="2"
     inkscape:cx="-218.12283"
     inkscape:cy="103.31384"
     inkscape:document-units="px"
     inkscape:current-layer="layer2"
     showgrid="false"
     inkscape:window-width="2560"
     inkscape:window-height="1367"
     inkscape:window-x="0"
     inkscape:window-y="0"
     inkscape:window-maximized="1" />
  <defs
     id="defs4501" />
  <metadata
     id="metadata4504">
    <rdf:RDF>
      <cc:Work
         rdf:about="">
        <dc:format>image/svg+xml</dc:format>
        <dc:type
           rdf:resource="http://purl.org/dc/dcmitype/StillImage" />
        <dc:title />
      </cc:Work>
    </rdf:RDF>
  </metadata>
  <g
     id="layer1"
     inkscape:groupmode="layer"
     inkscape:label="Layer 1">
    <ellipse
       style="fill:none;fill-opacity:1;stroke:#cdcdcd;stroke-width:4.27327347;stroke-linecap:round;stroke-linejoin:round;stroke-miterlimit:4;stroke-dasharray:none;stroke-opacity:1;paint-order:markers fill stroke"
       id="path5074"
       cx="35"
       cy="105"
       rx="32.863255"
       ry="32.863361"
       inkscape:export-xdpi="96.00029"
       inkscape:export-ydpi="96.00029" />
    <circle
       style="fill:#cccccc;fill-opacity:1;stroke:none;stroke-width:3.34261823;stroke-linecap:round;stroke-linejoin:round;stroke-miterlimit:4;stroke-dasharray:none;stroke-opacity:1;paint-order:markers fill stroke"
       id="path5076"
       cx="35"
       cy="105"
       r="25"
       inkscape:export-xdpi="96.00029"
       inkscape:export-ydpi="96.00029" />
    <path
       style="fill:#cccccc;fill-opacity:1;stroke:none;stroke-width:3.83198285;stroke-linecap:round;stroke-linejoin:round;stroke-miterlimit:4;stroke-dasharray:none;stroke-opacity:1;paint-order:markers fill stroke"
       d="M 35 0 A 35 35 0 0 0 0 35 L 0 105 A 35 35 0 0 1 35 70 A 35 35 0 0 1 70 105 L 70 35 A 35 35 0 0 0 35 0 z "
       id="rect5118" />
    <path
       inkscape:connector-curvature="0"
       style="fill:#cccccc;fill-opacity:1;stroke:none;stroke-width:3.83198285;stroke-linecap:round;stroke-linejoin:round;stroke-miterlimit:4;stroke-dasharray:none;stroke-opacity:1;paint-order:markers fill stroke"
       d="M 35,210 A 35,35 0 0 0 70,175 V 105 A 35,35 0 0 1 35,140 35,35 0 0 1 0,105 v 70 a 35,35 0 0 0 35,35 z"
       id="rect5118-3" />
    <path
       inkscape:connector-curvature="0"
       style="fill:#cccccc;fill-opacity:1;stroke:none;stroke-width:3.83198285;stroke-linecap:round;stroke-linejoin:round;stroke-miterlimit:4;stroke-dasharray:none;stroke-opacity:1;paint-order:markers fill stroke"
       d="M -88.388349,-29.529745 A 35,35 0 0 0 -123.38835,5.4702546 V 75.470255 a 35,35 0 0 1 35.000001,-35 35,35 0 0 1 35,35 V 5.4702546 a 35,35 0 0 0 -35,-34.9999996 z"
       id="rect5118-36" />
    <path
       inkscape:connector-curvature="0"
       style="fill:#cccccc;fill-opacity:1;stroke:none;stroke-width:3.83198285;stroke-linecap:round;stroke-linejoin:round;stroke-miterlimit:4;stroke-dasharray:none;stroke-opacity:1;paint-order:markers fill stroke"
       d="m -88.388349,180.47025 a 35,35 0 0 0 35,-35 V 75.470255 a 35,35 0 0 1 -35,35.000005 35,35 0 0 1 -35.000001,-35.000005 v 69.999995 a 35,35 0 0 0 35.000001,35 z"
       id="rect5118-3-7" />
    <path
       inkscape:connector-curvature="0"
       style="fill:#cccccc;fill-opacity:1;stroke:none;stroke-width:3.83198285;stroke-linecap:round;stroke-linejoin:round;stroke-miterlimit:4;stroke-dasharray:none;stroke-opacity:1;paint-order:markers fill stroke"
       d="m -186.5,183 a 35,35 0 0 0 35,-35 V 78 a 35,35 0 0 1 -35,35 35,35 0 0 1 -35,-35 v 70 a 35,35 0 0 0 35,35 z"
       id="rect5118-3-5" />
    <path
       inkscape:connector-curvature="0"
       style="fill:#cccccc;fill-opacity:1;stroke:none;stroke-width:3.83198285;stroke-linecap:round;stroke-linejoin:round;stroke-miterlimit:4;stroke-dasharray:none;stroke-opacity:1;paint-order:markers fill stroke"
       d="m -186.5,-27 a 35,35 0 0 0 -35,35.0000004 V 78 a 35,35 0 0 1 35,-35 35,35 0 0 1 35,35 V 8.0000004 A 35,35 0 0 0 -186.5,-27 Z"
       id="rect5118-35" />
    <path
       inkscape:connector-curvature="0"
       style="fill:#cccccc;fill-opacity:1;stroke:none;stroke-width:3.83198285;stroke-linecap:round;stroke-linejoin:round;stroke-miterlimit:4;stroke-dasharray:none;stroke-opacity:1;paint-order:markers fill stroke"
       d="m -280,189.5 a 35,35 0 0 0 35,-35 v -70 a 35,35 0 0 1 -35,35 35,35 0 0 1 -35,-35 v 70 a 35,35 0 0 0 35,35 z"
       id="rect5118-3-6" />
    <path
       inkscape:connector-curvature="0"
       style="fill:#cccccc;fill-opacity:1;stroke:none;stroke-width:3.83198285;stroke-linecap:round;stroke-linejoin:round;stroke-miterlimit:4;stroke-dasharray:none;stroke-opacity:1;paint-order:markers fill stroke"
       d="m -280,-20.5 a 35,35 0 0 0 -35,35 v 70 a 35,35 0 0 1 35,-35 35,35 0 0 1 35,35 v -70 a 35,35 0 0 0 -35,-35 z"
       id="rect5118-2" />
  </g>
  <g
     inkscape:groupmode="layer"
     id="layer2"
     inkscape:label="Layer 2">
    <text
       xml:space="preserve"
       style="font-style:normal;font-variant:normal;font-weight:900;font-stretch:normal;font-size:53.33333206px;line-height:1.25;font-family:'Noto Sans CJK JP';-inkscape-font-specification:'Noto Sans CJK JP, Heavy';font-variant-ligatures:normal;font-variant-caps:normal;font-variant-numeric:normal;font-feature-settings:normal;text-align:start;letter-spacing:0px;word-spacing:0px;writing-mode:lr-tb;text-anchor:start;fill:#000000;fill-opacity:1;stroke:none"
       x="-116.60355"
       y="29.189339"
       id="text5157"><tspan
         sodipodi:role="line"
         id="tspan5155"
         x="-116.60355"
         y="29.189339">良</tspan></text>
    <text
       xml:space="preserve"
       style="font-style:normal;font-variant:normal;font-weight:900;font-stretch:normal;font-size:53.33333206px;line-height:1.25;font-family:'Noto Sans CJK JP';-inkscape-font-specification:'Noto Sans CJK JP, Heavy';font-variant-ligatures:normal;font-variant-caps:normal;font-variant-numeric:normal;font-feature-settings:normal;text-align:start;letter-spacing:0px;word-spacing:0px;writing-mode:lr-tb;text-anchor:start;fill:#000000;fill-opacity:1;stroke:none"
       x="-213.29846"
       y="31.748447"
       id="text5157-1"><tspan
         sodipodi:role="line"
         id="tspan5177"
         x="-213.29846"
         y="31.748447">可</tspan></text>
    <text
       xml:space="preserve"
       style="font-style:normal;font-variant:normal;font-weight:900;font-stretch:normal;font-size:32px;line-height:1.25;font-family:'Noto Sans CJK JP';-inkscape-font-specification:'Noto Sans CJK JP, Heavy';font-variant-ligatures:normal;font-variant-caps:normal;font-variant-numeric:normal;font-feature-settings:normal;text-align:start;letter-spacing:0px;word-spacing:0px;writing-mode:tb-rl;text-anchor:start;fill:#000000;fill-opacity:1;stroke:none"
       x="-279.62286"
       y="-15.593747"
       id="text5157-1-9"><tspan
         sodipodi:role="line"
         id="tspan5203"
         x="-602.09375"
         y="306.87714">ヤバ</tspan></text>
    <text
       xml:space="preserve"
       style="font-style:normal;font-variant:normal;font-weight:900;font-stretch:normal;font-size:18.66666603px;line-height:1.25;font-family:'Noto Sans CJK JP';-inkscape-font-specification:'Noto Sans CJK JP, Heavy';font-variant-ligatures:normal;font-variant-caps:normal;font-variant-numeric:normal;font-feature-settings:normal;text-align:start;letter-spacing:0px;word-spacing:0px;writing-mode:tb-rl;text-anchor:start;fill:#000000;fill-opacity:1;stroke:none"
       x="-87.840828"
       y="113.33356"
       id="text5157-1-9-9"><tspan
         sodipodi:role="line"
         id="tspan5253"
         x="112.62645"
         y="-87.13372">GREAT</tspan></text>
    <text
       xml:space="preserve"
       style="font-style:normal;font-variant:normal;font-weight:900;font-stretch:normal;font-size:18.66666603px;line-height:1.25;font-family:'Noto Sans CJK JP';-inkscape-font-specification:'Noto Sans CJK JP, Heavy';font-variant-ligatures:normal;font-variant-caps:normal;font-variant-numeric:normal;font-feature-settings:normal;text-align:start;letter-spacing:0px;word-spacing:0px;writing-mode:tb-rl;text-anchor:start;fill:#000000;fill-opacity:1;stroke:none"
       x="-186.45421"
       y="119.99332"
       id="text5157-1-9-9-9"><tspan
         sodipodi:role="line"
         id="tspan5255"
         x="119.28621"
         y="-185.7471">OKAY</tspan></text>
    <text
       xml:space="preserve"
       style="font-style:normal;font-variant:normal;font-weight:900;font-stretch:normal;font-size:18.66666603px;line-height:1.25;font-family:'Noto Sans CJK JP';-inkscape-font-specification:'Noto Sans CJK JP, Heavy';font-variant-ligatures:normal;font-variant-caps:normal;font-variant-numeric:normal;font-feature-settings:normal;text-align:start;letter-spacing:0px;word-spacing:0px;writing-mode:tb-rl;text-anchor:start;fill:#000000;fill-opacity:1;stroke:none"
       x="-280.32034"
       y="124.94812"
       id="text5157-1-9-9-9-7"><tspan
         sodipodi:role="line"
         id="tspan5275"
         x="123.94812"
         y="-279.32034">YIKES</tspan></text>
  </g>
</svg>
